<svg xmlns="http://www.w3.org/2000/svg" xmlns:xlink="http://www.w3.org/1999/xlink" width="145pt" height="184pt" viewBox="0 0 144.61 184"><g id="graph0" class="graph" transform="scale(1 1) rotate(0) translate(4 180)"><title>G</title><polygon fill="#fff" stroke="transparent" points="-4 4 -4 -180 140.612 -180 140.612 4 -4 4"/><g id="clust1" class="cluster"><title>cluster_Global</title><path fill="none" stroke="silver" d="M20,-8C20,-8 116.6118,-8 116.6118,-8 122.6118,-8 128.6118,-14 128.6118,-20 128.6118,-20 128.6118,-156 128.6118,-156 128.6118,-162 122.6118,-168 116.6118,-168 116.6118,-168 20,-168 20,-168 14,-168 8,-162 8,-156 8,-156 8,-20 8,-20 8,-14 14,-8 20,-8"/><text x="68.306" y="-155.2" fill="silver" font-family="Times,serif" font-size="11" text-anchor="middle">Global</text></g><g id="clust2" class="cluster"><title>cluster_\EasyMath</title><path fill="none" stroke="silver" d="M28,-16C28,-16 108.6118,-16 108.6118,-16 114.6118,-16 120.6118,-22 120.6118,-28 120.6118,-28 120.6118,-129 120.6118,-129 120.6118,-135 114.6118,-141 108.6118,-141 108.6118,-141 28,-141 28,-141 22,-141 16,-135 16,-129 16,-129 16,-28 16,-28 16,-22 22,-16 28,-16"/><text x="68.306" y="-128.2" fill="silver" font-family="Times,serif" font-size="11" text-anchor="middle">EasyMath</text></g><g id="node1" class="node"><title>\\EasyMath\\Subtraction</title><polygon fill="none" stroke="#000" points="112.419 -114 24.193 -114 24.193 -78 112.419 -78 112.419 -114"/><text x="68.306" y="-92.7" fill="#000" font-family="Courier,monospace" font-size="11" text-anchor="middle">Subtraction</text></g><g id="node2" class="node"><title>\\EasyMath\\Addition</title><polygon fill="none" stroke="#000" points="102.615 -60 33.997 -60 33.997 -24 102.615 -24 102.615 -60"/><text x="68.306" y="-38.7" fill="#000" font-family="Courier,monospace" font-size="11" text-anchor="middle">Addition</text></g></g></svg>